<?xml version="1.0" encoding="UTF-8"?> <svg xmlns="http://www.w3.org/2000/svg" xmlns:xlink="http://www.w3.org/1999/xlink" version="1.1" id="Capa_1" x="0px" y="0px" viewBox="0 0 250 250" style="enable-background:new 0 0 250 250;" xml:space="preserve"> <style type="text/css"> .st0{fill:#438E44;} .st1{fill:#FFFFFF;} </style> <g> <path class="st0" d="M9.4,114.9v17.6c0,13.4,5,30,14.9,49.9C18,207.6,12.5,227,8.1,240.7c0.9,0,1.3,0.4,1.3,1.3l56.8-14.9h2.7 c22.4,9.1,40,13.6,52.8,13.6h5.3c32.8,0,62.1-14,88-42.1c18-23.3,26.9-48.5,26.9-75.7c0-46.3-23.4-82-70.1-106.9 c-15-5.3-28.1-8-39.4-8h-12C72.2,8,36.6,35,13.4,89C10.8,103.1,9.4,111.8,9.4,114.9z"></path> <g> <path class="st1" d="M127,26.9c40.8,0,71,21.7,90.6,65c3.6,10.8,5.3,22,5.3,33.6c0,0.9-0.4,1.3-1.3,1.3c0,1,0.4,1.6,1.3,1.6 c0,29.5-16.6,56.6-49.9,81.1c-18.4,8.2-34.2,12.2-47.4,12.2c-15.1,0-33.2-5-54.1-14.9h-4l-25.8,6.7H39l-2.7-1.3 c5.5-20.3,8.2-31.6,8.2-33.9c-10.8-19.4-16.3-34.3-16.3-44.5v-16.3c0-31.8,18.5-59.3,55.5-82.6C98.6,29.6,113,26.9,127,26.9z"></path> </g> <path class="st0" d="M66.2,97.3c0,22.4,18.5,46.3,55.5,71.7c15.7,7.1,25.6,10.7,29.6,10.7h8.2c16.2-3.9,24.3-10.6,24.3-20.3v-6.7 c-0.4-2.8-9.4-7.3-26.9-13.6h-2.7l-14.9,14.9c-18.6-7.3-33-19.9-43.4-37.9v-1.3c6.4-7.7,9.6-13.1,9.6-16.3 c-6.2-19-11.7-28.5-16.3-28.5h-4C72.5,73.4,66.2,82.4,66.2,97.3z"></path> </g> </svg> 